<svg xmlns="http://www.w3.org/2000/svg" xmlns:xlink="http://www.w3.org/1999/xlink" version="1.1" width="256" height="256" viewBox="0 0 256 256" xml:space="preserve">

<defs>
</defs>
<g style="stroke: none; stroke-width: 0; stroke-dasharray: none; stroke-linecap: butt; stroke-linejoin: miter; stroke-miterlimit: 10; fill: none; fill-rule: nonzero; opacity: 1;" transform="translate(1.4065934065934016 1.4065934065934016) scale(2.81 2.81)" >
	<path d="M 33.328 41.278 L 33.328 41.278 c -10.413 0 -18.853 -8.441 -18.853 -18.853 v -3.259 c 0 -10.412 8.441 -18.853 18.853 -18.853 h 0 c 10.412 0 18.853 8.441 18.853 18.853 v 3.259 C 52.181 32.837 43.74 41.278 33.328 41.278 z" style="stroke: none; stroke-width: 1; stroke-dasharray: none; stroke-linecap: butt; stroke-linejoin: miter; stroke-miterlimit: 10; fill: rgb(0,0,0); fill-rule: nonzero; opacity: 1;" transform=" matrix(1 0 0 1 0 0) " stroke-linecap="round" />
	<path d="M 86.249 60.43 c -1.426 0 -2.705 -0.821 -3.36 -2.087 c -0.13 -0.253 -0.268 -0.503 -0.411 -0.752 c -0.143 -0.249 -0.292 -0.493 -0.446 -0.732 c -0.769 -1.2 -0.841 -2.718 -0.127 -3.953 c 1.036 -1.794 0.421 -4.088 -1.372 -5.123 l -4.967 -2.868 c -1.794 -1.036 -4.088 -0.421 -5.123 1.372 l -0.001 0.002 c -0.702 1.217 -2.026 1.934 -3.429 1.865 c -0.61 -0.03 -1.222 -0.03 -1.835 0 c -1.401 0.068 -2.721 -0.651 -3.423 -1.866 l -0.001 -0.001 c -1.036 -1.794 -3.33 -2.409 -5.123 -1.372 l -4.967 2.868 c -1.794 1.036 -2.409 3.33 -1.372 5.123 l 0.001 0.001 c 0.701 1.214 0.664 2.718 -0.096 3.897 c -0.332 0.516 -0.638 1.047 -0.917 1.59 c -0.642 1.25 -1.925 2.037 -3.33 2.037 h -0.002 c -2.071 0 -3.751 1.679 -3.751 3.751 v 5.737 c 0 2.071 1.679 3.751 3.751 3.751 l 0 0 c 1.426 0 2.705 0.821 3.36 2.087 c 0.13 0.252 0.268 0.503 0.411 0.752 s 0.292 0.493 0.446 0.732 c 0.769 1.2 0.841 2.718 0.127 3.953 c -1.036 1.794 -0.421 4.088 1.372 5.123 l 4.967 2.868 c 1.794 1.036 4.088 0.421 5.123 -1.372 l 0.001 -0.002 c 0.702 -1.217 2.026 -1.934 3.429 -1.865 c 0.61 0.03 1.222 0.03 1.835 0 c 1.401 -0.068 2.721 0.651 3.423 1.866 l 0.001 0.001 c 1.036 1.794 3.329 2.409 5.123 1.372 l 4.967 -2.868 c 1.794 -1.035 2.409 -3.329 1.372 -5.123 l -0.001 -0.001 c -0.701 -1.214 -0.664 -2.718 0.096 -3.897 c 0.332 -0.516 0.638 -1.047 0.917 -1.59 c 0.642 -1.25 1.925 -2.037 3.33 -2.037 h 0.002 c 2.071 0 3.751 -1.679 3.751 -3.751 V 64.18 C 90 62.109 88.321 60.43 86.249 60.43 z M 71.408 76.247 c -5.08 2.934 -11.577 1.193 -14.51 -3.888 c -2.934 -5.08 -1.193 -11.577 3.888 -14.51 s 11.577 -1.193 14.51 3.888 C 78.229 66.818 76.488 73.315 71.408 76.247 z" style="stroke: none; stroke-width: 1; stroke-dasharray: none; stroke-linecap: butt; stroke-linejoin: miter; stroke-miterlimit: 10; fill: rgb(0,0,0); fill-rule: nonzero; opacity: 1;" transform=" matrix(1 0 0 1 0 0) " stroke-linecap="round" />
	<path d="M 45.477 79.382 c -0.063 -0.106 -0.126 -0.213 -0.188 -0.32 c -0.061 -0.106 -0.121 -0.213 -0.181 -0.32 c -4.496 -0.424 -8.025 -4.221 -8.025 -8.825 v -5.737 c 0 -4.603 3.528 -8.399 8.022 -8.824 c 0.12 -0.217 0.244 -0.431 0.371 -0.643 c -0.941 -2.057 -1.028 -4.327 -0.378 -6.371 h -4.12 H 20.56 C 9.205 48.343 0 57.548 0 68.903 v 16.465 h 44.44 h 0.553 C 44.471 83.427 44.594 81.312 45.477 79.382 z" style="stroke: none; stroke-width: 1; stroke-dasharray: none; stroke-linecap: butt; stroke-linejoin: miter; stroke-miterlimit: 10; fill: rgb(0,0,0); fill-rule: nonzero; opacity: 1;" transform=" matrix(1 0 0 1 0 0) " stroke-linecap="round" />
</g>
</svg>